<svg id="Capa_1" data-name="Capa 1" xmlns="http://www.w3.org/2000/svg" viewBox="0 0 93.04 73.91"><title>Plan de travail 2</title><path d="M46.55,65.94a4.21,4.21,0,0,1-2.43,3.82,4.13,4.13,0,0,1-4.49-.59L16.53,50.05H4.22A4.22,4.22,0,0,1,0,45.83H0V29a4.21,4.21,0,0,1,4.21-4.23H16.53L39.63,5.63a4.23,4.23,0,0,1,6.92,3.25Zm16.23-6.6h-.3a4.2,4.2,0,0,1-3-1.24l-.56-.56A4.23,4.23,0,0,1,58.51,52a24.56,24.56,0,0,0-.65-30.1,4.22,4.22,0,0,1,.29-5.65l.56-.57a4.16,4.16,0,0,1,3.2-1.23A4.23,4.23,0,0,1,65,16a33.86,33.86,0,0,1,.88,41.62A4.25,4.25,0,0,1,62.78,59.34ZM80.25,72.42a4.21,4.21,0,0,1-3,1.49H77a4.27,4.27,0,0,1-3-1.23l-.55-.56a4.22,4.22,0,0,1-.25-5.7,45,45,0,0,0-.74-58.83,4.23,4.23,0,0,1,.17-5.79l.55-.55A4.09,4.09,0,0,1,76.3,0a4.2,4.2,0,0,1,3,1.41,54.26,54.26,0,0,1,.89,71Z"/></svg>